<svg width="346" height="108" viewBox="0 0 346 108" fill="none" xmlns="http://www.w3.org/2000/svg">
<path d="M181.555 17.937L149.721 79.7593H162.853L168.026 69.4556H197.472L192.299 59.1519L173.995 58.7556L188.32 31.4111L212.991 82.137H226.521L195.085 17.937H181.555Z" fill="white"/>
<path d="M89.237 85.7037L77.2993 87.6852V12.3889L89.237 13.5778V85.7037Z" fill="white"/>
<path d="M95.6038 84.9111V14.3704H98.3893C101.573 14.3704 107.144 14.7667 113.908 15.5593C119.479 16.212 125.05 16.7481 127.04 17.5407C128.631 18.0691 133.088 20.077 138.182 23.8815C143.275 27.6859 146.14 33.3926 146.936 35.7704V43.6963C146.671 45.5457 145.503 50.037 142.957 53.2074C140.41 56.3778 135.264 59.8123 133.009 61.1333L147.334 80.5518L132.213 80.9482L120.275 63.9074H111.521L116.296 52.4148L124.254 52.0185C127.438 51.6222 127.438 51.2259 128.234 50.8296C128.589 50.6524 131.463 48.8895 131.815 48.4519C133.407 46.4704 133.804 46.4704 134.6 44.4889V38.9407C134.6 38.1481 134.998 36.9593 133.804 35.3741C132.611 33.7889 132.213 33.3926 131.019 32.2037C129.825 31.0148 130.621 31.4111 128.234 29.8259C125.846 28.2407 124.652 28.637 124.254 28.2407C123.936 27.9237 117.755 27.5802 114.704 27.4481H107.542V83.3259L95.6038 84.9111Z" fill="white"/>
<path d="M12.4377 101.952L0.5 105.122V1.68889L13.2336 2.87778L13.6315 3.67037L35.5173 49.6407L57.801 10.0111L70.9325 11.5963L71.3304 88.4778L58.9948 90.4593L58.5969 34.5815L35.5173 78.1741L12.4377 32.6V101.952Z" fill="white"/>
<path d="M298.147 7.23704L345.102 0.5L345.5 18.7296L310.483 21.9V44.0926L336.348 44.4889L339.133 62.3222L310.483 60.3407V82.5333L345.5 89.2704L345.102 107.5L298.147 94.8185V7.23704Z" fill="white"/>
<path d="M264.324 10.8037C270.69 10.8037 279.179 17.1444 282.628 20.3148L274.67 30.6185L268.303 26.2593C266.18 25.4667 260.901 23.9607 256.763 24.2778C252.625 24.5948 248.407 26.2593 246.815 27.0519C244.825 27.9765 240.13 30.777 237.265 34.5815C234.4 38.3859 232.888 43.0358 232.49 44.8852L232.888 52.8111C233.153 55.5852 235.116 62.4807 240.846 67.8704C246.576 73.26 252.784 74.8716 255.171 75.0037C258.487 76.3247 266.631 77.54 272.68 71.8333C278.728 66.1267 280.771 59.6802 281.036 57.1704L248.407 55.9815L251.192 43.6963H292.974C293.372 46.6025 293.929 53.683 292.974 58.7556C292.019 63.8281 290.454 68.2667 289.791 69.8519C288.332 74.4753 283.106 84.3563 273.874 86.8926C262.334 90.063 254.375 88.0815 249.202 86.1C244.029 84.1185 232.888 77.3815 228.51 71.8333C224.133 66.2852 220.95 58.3593 220.552 51.6222C220.154 44.8852 220.95 39.337 224.133 33.7889C226.68 29.3504 231.031 24.8062 232.888 23.0889C235.142 20.8432 241.324 15.7178 248.009 13.1815C256.365 10.0111 256.365 10.8037 264.324 10.8037Z" fill="white"/>
</svg>
